<svg width="386" height="311" viewBox="0 0 386 311" fill="none" xmlns="http://www.w3.org/2000/svg">
<path d="M83.5766 129.339C91.1988 128.752 127.564 140.65 133.848 143.163C150.186 149.447 176.578 133.109 176.578 133.109C176.578 133.109 213.025 115.514 219.309 107.973C221.586 105.24 224.589 99.778 227.852 93.8402C233.884 82.8672 240.808 70.27 245.701 70.27C248.995 70.27 251.221 76.298 254.069 84.0133C259.132 97.7267 266.162 116.771 284.661 116.771C297.884 116.771 299.15 124.686 301.611 131.345C301.765 138.791 305.552 146.933 317.833 146.933C324.505 146.933 333.166 149.094 337.418 151.412C342.339 154.094 352.345 156.988 362.686 156.988V188.407V248.165H23.2513V188.407C28.5092 182.799 34.2558 175.822 40.1641 168.648C55.4395 150.102 71.7953 130.245 83.5766 129.339Z" fill="url(#paint0_linear_70_40)" fill-opacity="0.35"/>
<g filter="url(#filter0_dddddddd_70_40)">
<path d="M22.5002 188.407C41.3519 168.299 66.4874 130.595 82.8255 129.338C90.4477 128.752 126.813 140.649 133.097 143.163C149.435 149.447 175.827 133.109 175.827 133.109C175.827 133.109 212.274 115.514 218.557 107.973C225.044 100.189 237.409 70.2699 244.95 70.2699C254.099 70.2699 255.004 116.771 283.91 116.771C310.035 116.771 292.214 146.933 317.082 146.933C331.475 146.933 342.658 156.988 361.935 156.988" stroke="#34BC68" stroke-width="1.7866" stroke-linecap="round"/>
</g>
<g filter="url(#filter1_dddddd_70_40)">
<path d="M22.5002 188.407C41.3519 168.299 66.4874 130.595 82.8255 129.338C90.4477 128.752 126.813 140.649 133.097 143.163C149.435 149.447 175.827 133.109 175.827 133.109C175.827 133.109 212.274 115.514 218.557 107.973C225.044 100.189 237.409 70.2699 244.95 70.2699C254.099 70.2699 255.004 116.771 283.91 116.771C310.035 116.771 292.214 146.933 317.082 146.933C331.475 146.933 342.658 156.988 361.935 156.988" stroke="#34BC68" stroke-width="1.7866" stroke-linecap="round"/>
</g>
<path d="M22.5002 188.407C41.3519 168.299 66.4874 130.595 82.8255 129.338C90.4477 128.752 126.813 140.649 133.097 143.163C149.435 149.447 175.827 133.109 175.827 133.109C175.827 133.109 212.274 115.514 218.557 107.973C225.044 100.189 237.409 70.2699 244.95 70.2699C254.099 70.2699 255.004 116.771 283.91 116.771C310.035 116.771 292.214 146.933 317.082 146.933C331.475 146.933 342.658 156.988 361.935 156.988" stroke="#34BC68" stroke-width="1.7866" stroke-linecap="round"/>
<path d="M22.5002 188.407C41.3519 168.299 66.4874 130.595 82.8255 129.339C90.4477 128.752 126.813 140.65 133.097 143.163C149.435 149.447 175.827 133.109 175.827 133.109C175.827 133.109 212.274 115.514 218.557 107.973C225.044 100.189 237.409 70.2701 244.95 70.2701C254.099 70.2701 255.004 116.771 283.91 116.771C310.035 116.771 292.214 146.934 317.082 146.934C331.475 146.934 342.658 156.988 361.935 156.988" stroke="#34BC68" stroke-width="1.7866" stroke-linecap="round"/>
<path d="M39.564 267.798H40.9021V269.098H36.4374V267.798H38.0382V262.52C37.6005 262.758 37.2003 262.833 36.4624 262.833V261.545C37.4129 261.545 37.9882 261.269 38.3884 260.519H39.564V267.798ZM45.5165 260.519C47.9678 260.519 49.6561 262.107 49.6561 264.809C49.6561 267.51 47.9678 269.098 45.5165 269.098H42.2524V260.519H45.5165ZM45.5165 267.823C47.0423 267.823 48.1178 266.772 48.1178 264.809C48.1178 262.845 47.0423 261.807 45.5165 261.807H43.7782V267.81L45.5165 267.823Z" fill="#101010"/>
<rect x="119.684" y="248.165" width="43.799" height="33.866" rx="16.5261" fill="#DFECE7"/>
<path d="M136.398 268.123H137.761V269.098H133.646V268.123H135.297V262.132C134.872 262.395 134.447 262.482 133.646 262.482V261.532C134.584 261.532 135.197 261.232 135.585 260.519H136.398V268.123ZM148.193 260.519H149.306L146.793 269.098H145.629L143.653 261.932L141.677 269.098H140.502L137.988 260.519H139.101L141.077 267.873L143.078 260.519H144.216L146.217 267.873L148.193 260.519Z" fill="#101010"/>
<path d="M235.581 268.123H236.944V269.098H232.83V268.123H234.481V262.132C234.055 262.395 233.63 262.482 232.83 262.482V261.532C233.768 261.532 234.381 261.232 234.768 260.519H235.581V268.123ZM244.83 260.519H246.594L246.581 269.098H245.518V261.482L242.992 269.098H242.004L239.478 261.52V269.098H238.415L238.402 260.519H240.153L242.492 267.76L244.83 260.519Z" fill="#7C7C7C"/>
<path d="M334.29 263.696C335.891 263.696 337.116 264.759 337.116 266.409C337.116 268.048 335.916 269.161 334.252 269.161C332.289 269.161 331.101 267.723 331.101 264.821C331.101 261.945 332.301 260.444 334.277 260.444C335.853 260.444 336.979 261.419 336.966 262.808H335.878C335.866 261.845 335.153 261.419 334.315 261.419C332.952 261.419 332.151 262.545 332.151 264.809V264.859C332.602 264.171 333.39 263.696 334.29 263.696ZM334.252 268.185C335.24 268.185 336.003 267.522 336.003 266.397C336.003 265.321 335.315 264.671 334.29 264.671C333.164 264.671 331.926 265.471 332.514 267.122C332.839 267.86 333.415 268.185 334.252 268.185ZM345.347 260.519H347.11L347.098 269.098H346.035V261.482L343.508 269.098H342.52L339.994 261.52V269.098H338.931L338.919 260.519H340.669L343.008 267.76L345.347 260.519Z" fill="#7C7C7C"/>
<path d="M244.932 47.8282L244.932 234.528" stroke="url(#paint1_linear_70_40)" stroke-width="0.8933" stroke-linecap="round"/>
<circle cx="244.731" cy="69.2658" r="4.91315" fill="#D9D9D9" stroke="#34BC68" stroke-width="2.6799"/>
<g filter="url(#filter2_f_70_40)">
<circle cx="244.731" cy="69.2658" r="3.5732" fill="white"/>
</g>
<path d="M0 46.6H386V267.6C386 291.348 366.748 310.6 343 310.6H43C19.2517 310.6 0 291.348 0 267.6V46.6Z" fill="url(#paint2_linear_70_40)"/>
<g filter="url(#filter3_dd_70_40)">
<rect x="184" y="13.6" width="123" height="33" rx="16.5" fill="white"/>
<rect x="184.5" y="14.1" width="122" height="32" rx="16" stroke="#DEE6ED"/>
<g clip-path="url(#clip0_70_40)">
<path d="M210.129 23.975L202.629 31.475L199.504 28.35L193.879 33.975" stroke="#34BC68" stroke-width="1.71429" stroke-linecap="round" stroke-linejoin="round"/>
<path d="M210.125 28.975V23.975H205.125" stroke="#34BC68" stroke-width="1.71429" stroke-linecap="round" stroke-linejoin="round"/>
</g>
<path d="M225.568 30.218H222.74V33.116H221.256V30.218H218.428V28.874H221.256V25.976H222.74V28.874H225.568V30.218ZM228.716 32.43C229.612 31.6553 230.317 31.0206 230.83 30.526C231.353 30.022 231.787 29.4993 232.132 28.958C232.477 28.4166 232.65 27.8753 232.65 27.334C232.65 26.774 232.515 26.3353 232.244 26.018C231.983 25.7006 231.567 25.542 230.998 25.542C230.447 25.542 230.018 25.7193 229.71 26.074C229.411 26.4193 229.253 26.886 229.234 27.474H227.694C227.722 26.41 228.039 25.598 228.646 25.038C229.262 24.4686 230.041 24.184 230.984 24.184C232.001 24.184 232.795 24.464 233.364 25.024C233.943 25.584 234.232 26.3306 234.232 27.264C234.232 27.936 234.059 28.5846 233.714 29.21C233.378 29.826 232.972 30.3813 232.496 30.876C232.029 31.3613 231.432 31.926 230.704 32.57L230.074 33.13H234.512V34.46H227.708V33.298L228.716 32.43ZM242.494 25.766H237.804V28.552C238 28.2906 238.29 28.0713 238.672 27.894C239.064 27.7166 239.48 27.628 239.918 27.628C240.702 27.628 241.337 27.796 241.822 28.132C242.317 28.468 242.667 28.8926 242.872 29.406C243.087 29.9193 243.194 30.4606 243.194 31.03C243.194 31.7206 243.059 32.3366 242.788 32.878C242.527 33.41 242.13 33.83 241.598 34.138C241.076 34.446 240.432 34.6 239.666 34.6C238.649 34.6 237.832 34.348 237.216 33.844C236.6 33.34 236.232 32.6726 236.11 31.842H237.664C237.767 32.2806 237.996 32.6306 238.35 32.892C238.705 33.144 239.148 33.27 239.68 33.27C240.343 33.27 240.838 33.0693 241.164 32.668C241.5 32.2666 241.668 31.7346 241.668 31.072C241.668 30.4 241.5 29.8866 241.164 29.532C240.828 29.168 240.334 28.986 239.68 28.986C239.223 28.986 238.836 29.1026 238.518 29.336C238.21 29.56 237.986 29.868 237.846 30.26H236.334V24.366H242.494V25.766ZM246.816 32.682L245.122 36.546H244.086L245.08 32.682H246.816ZM247.972 26.914C248.028 26.046 248.359 25.3693 248.966 24.884C249.582 24.3986 250.366 24.156 251.318 24.156C251.971 24.156 252.536 24.2726 253.012 24.506C253.488 24.7393 253.847 25.0566 254.09 25.458C254.333 25.8593 254.454 26.312 254.454 26.816C254.454 27.3946 254.3 27.8893 253.992 28.3C253.684 28.7106 253.315 28.986 252.886 29.126V29.182C253.437 29.35 253.866 29.658 254.174 30.106C254.482 30.5446 254.636 31.1093 254.636 31.8C254.636 32.3506 254.51 32.8406 254.258 33.27C254.006 33.6993 253.633 34.04 253.138 34.292C252.643 34.5346 252.051 34.656 251.36 34.656C250.352 34.656 249.521 34.3993 248.868 33.886C248.224 33.3633 247.879 32.6166 247.832 31.646H249.372C249.409 32.1406 249.601 32.5466 249.946 32.864C250.291 33.172 250.758 33.326 251.346 33.326C251.915 33.326 252.354 33.172 252.662 32.864C252.97 32.5466 253.124 32.1406 253.124 31.646C253.124 30.9926 252.914 30.5306 252.494 30.26C252.083 29.98 251.449 29.84 250.59 29.84H250.226V28.524H250.604C251.36 28.5146 251.934 28.3886 252.326 28.146C252.727 27.9033 252.928 27.5206 252.928 26.998C252.928 26.55 252.783 26.1953 252.494 25.934C252.205 25.6633 251.794 25.528 251.262 25.528C250.739 25.528 250.333 25.6633 250.044 25.934C249.755 26.1953 249.582 26.522 249.526 26.914H247.972ZM256.117 32.472V31.268L260.821 24.52H262.753V31.086H264.055V32.472H262.753V34.6H261.185V32.472H256.117ZM261.255 26.144L257.951 31.086H261.255V26.144ZM266.259 32.43C267.155 31.6553 267.86 31.0206 268.373 30.526C268.896 30.022 269.33 29.4993 269.675 28.958C270.02 28.4166 270.193 27.8753 270.193 27.334C270.193 26.774 270.058 26.3353 269.787 26.018C269.526 25.7006 269.11 25.542 268.541 25.542C267.99 25.542 267.561 25.7193 267.253 26.074C266.954 26.4193 266.796 26.886 266.777 27.474H265.237C265.265 26.41 265.582 25.598 266.189 25.038C266.805 24.4686 267.584 24.184 268.527 24.184C269.544 24.184 270.338 24.464 270.907 25.024C271.486 25.584 271.775 26.3306 271.775 27.264C271.775 27.936 271.602 28.5846 271.257 29.21C270.921 29.826 270.515 30.3813 270.039 30.876C269.572 31.3613 268.975 31.926 268.247 32.57L267.617 33.13H272.055V34.46H265.251V33.298L266.259 32.43ZM282.634 31.421C282.634 31.6483 282.619 31.8536 282.59 32.037H277.959C277.996 32.521 278.175 32.9096 278.498 33.203C278.821 33.4963 279.217 33.643 279.686 33.643C280.361 33.643 280.837 33.3606 281.116 32.796H282.469C282.286 33.3533 281.952 33.8116 281.468 34.171C280.991 34.523 280.397 34.699 279.686 34.699C279.107 34.699 278.586 34.5706 278.124 34.314C277.669 34.05 277.31 33.6833 277.046 33.214C276.789 32.7373 276.661 32.1873 276.661 31.564C276.661 30.9406 276.786 30.3943 277.035 29.925C277.292 29.4483 277.647 29.0816 278.102 28.825C278.564 28.5683 279.092 28.44 279.686 28.44C280.258 28.44 280.768 28.5646 281.215 28.814C281.662 29.0633 282.011 29.4153 282.26 29.87C282.509 30.3173 282.634 30.8343 282.634 31.421ZM281.325 31.025C281.318 30.563 281.153 30.1926 280.83 29.914C280.507 29.6353 280.108 29.496 279.631 29.496C279.198 29.496 278.828 29.6353 278.52 29.914C278.212 30.1853 278.029 30.5556 277.97 31.025H281.325ZM285.331 29.562V32.917C285.331 33.1443 285.382 33.3093 285.485 33.412C285.595 33.5073 285.778 33.555 286.035 33.555H286.805V34.6H285.815C285.25 34.6 284.818 34.468 284.517 34.204C284.216 33.94 284.066 33.511 284.066 32.917V29.562H283.351V28.539H284.066V27.032H285.331V28.539H286.805V29.562H285.331ZM289.215 29.441C289.427 29.1476 289.717 28.9093 290.084 28.726C290.458 28.5353 290.872 28.44 291.327 28.44C291.862 28.44 292.346 28.5683 292.779 28.825C293.211 29.0816 293.552 29.4483 293.802 29.925C294.051 30.3943 294.176 30.9333 294.176 31.542C294.176 32.1506 294.051 32.697 293.802 33.181C293.552 33.6576 293.208 34.0316 292.768 34.303C292.335 34.567 291.855 34.699 291.327 34.699C290.857 34.699 290.439 34.6073 290.073 34.424C289.713 34.2406 289.427 34.006 289.215 33.72V34.6H287.961V26.46H289.215V29.441ZM292.9 31.542C292.9 31.124 292.812 30.7646 292.636 30.464C292.467 30.156 292.24 29.925 291.954 29.771C291.675 29.6096 291.374 29.529 291.052 29.529C290.736 29.529 290.436 29.6096 290.15 29.771C289.871 29.9323 289.644 30.167 289.468 30.475C289.299 30.783 289.215 31.146 289.215 31.564C289.215 31.982 289.299 32.3486 289.468 32.664C289.644 32.972 289.871 33.2066 290.15 33.368C290.436 33.5293 290.736 33.61 291.052 33.61C291.374 33.61 291.675 33.5293 291.954 33.368C292.24 33.1993 292.467 32.9573 292.636 32.642C292.812 32.3266 292.9 31.96 292.9 31.542Z" fill="#101010"/>
</g>
<defs>
<filter id="filter0_dddddddd_70_40" x="21.6069" y="69.3766" width="341.221" height="119.924" filterUnits="userSpaceOnUse" color-interpolation-filters="sRGB">
<feFlood flood-opacity="0" result="BackgroundImageFix"/>
<feColorMatrix in="SourceAlpha" type="matrix" values="0 0 0 0 0 0 0 0 0 0 0 0 0 0 0 0 0 0 127 0" result="hardAlpha"/>
<feOffset/>
<feComposite in2="hardAlpha" operator="out"/>
<feColorMatrix type="matrix" values="0 0 0 0 0.203922 0 0 0 0 0.737255 0 0 0 0 0.407843 0 0 0 1 0"/>
<feBlend mode="normal" in2="BackgroundImageFix" result="effect1_dropShadow_70_40"/>
<feColorMatrix in="SourceAlpha" type="matrix" values="0 0 0 0 0 0 0 0 0 0 0 0 0 0 0 0 0 0 127 0" result="hardAlpha"/>
<feOffset/>
<feComposite in2="hardAlpha" operator="out"/>
<feColorMatrix type="matrix" values="0 0 0 0 0.203922 0 0 0 0 0.737255 0 0 0 0 0.407843 0 0 0 1 0"/>
<feBlend mode="normal" in2="effect1_dropShadow_70_40" result="effect2_dropShadow_70_40"/>
<feColorMatrix in="SourceAlpha" type="matrix" values="0 0 0 0 0 0 0 0 0 0 0 0 0 0 0 0 0 0 127 0" result="hardAlpha"/>
<feOffset/>
<feComposite in2="hardAlpha" operator="out"/>
<feColorMatrix type="matrix" values="0 0 0 0 0.203922 0 0 0 0 0.737255 0 0 0 0 0.407843 0 0 0 1 0"/>
<feBlend mode="normal" in2="effect2_dropShadow_70_40" result="effect3_dropShadow_70_40"/>
<feColorMatrix in="SourceAlpha" type="matrix" values="0 0 0 0 0 0 0 0 0 0 0 0 0 0 0 0 0 0 127 0" result="hardAlpha"/>
<feOffset/>
<feComposite in2="hardAlpha" operator="out"/>
<feColorMatrix type="matrix" values="0 0 0 0 0.203922 0 0 0 0 0.737255 0 0 0 0 0.407843 0 0 0 1 0"/>
<feBlend mode="normal" in2="effect3_dropShadow_70_40" result="effect4_dropShadow_70_40"/>
<feColorMatrix in="SourceAlpha" type="matrix" values="0 0 0 0 0 0 0 0 0 0 0 0 0 0 0 0 0 0 127 0" result="hardAlpha"/>
<feOffset/>
<feComposite in2="hardAlpha" operator="out"/>
<feColorMatrix type="matrix" values="0 0 0 0 0.203922 0 0 0 0 0.737255 0 0 0 0 0.407843 0 0 0 1 0"/>
<feBlend mode="normal" in2="effect4_dropShadow_70_40" result="effect5_dropShadow_70_40"/>
<feColorMatrix in="SourceAlpha" type="matrix" values="0 0 0 0 0 0 0 0 0 0 0 0 0 0 0 0 0 0 127 0" result="hardAlpha"/>
<feOffset/>
<feComposite in2="hardAlpha" operator="out"/>
<feColorMatrix type="matrix" values="0 0 0 0 0.203922 0 0 0 0 0.737255 0 0 0 0 0.407843 0 0 0 1 0"/>
<feBlend mode="normal" in2="effect5_dropShadow_70_40" result="effect6_dropShadow_70_40"/>
<feColorMatrix in="SourceAlpha" type="matrix" values="0 0 0 0 0 0 0 0 0 0 0 0 0 0 0 0 0 0 127 0" result="hardAlpha"/>
<feOffset/>
<feComposite in2="hardAlpha" operator="out"/>
<feColorMatrix type="matrix" values="0 0 0 0 0.203922 0 0 0 0 0.737255 0 0 0 0 0.407843 0 0 0 1 0"/>
<feBlend mode="normal" in2="effect6_dropShadow_70_40" result="effect7_dropShadow_70_40"/>
<feColorMatrix in="SourceAlpha" type="matrix" values="0 0 0 0 0 0 0 0 0 0 0 0 0 0 0 0 0 0 127 0" result="hardAlpha"/>
<feOffset/>
<feComposite in2="hardAlpha" operator="out"/>
<feColorMatrix type="matrix" values="0 0 0 0 0.203922 0 0 0 0 0.737255 0 0 0 0 0.407843 0 0 0 1 0"/>
<feBlend mode="normal" in2="effect7_dropShadow_70_40" result="effect8_dropShadow_70_40"/>
<feBlend mode="normal" in="SourceGraphic" in2="effect8_dropShadow_70_40" result="shape"/>
</filter>
<filter id="filter1_dddddd_70_40" x="14.0139" y="61.7835" width="356.408" height="135.11" filterUnits="userSpaceOnUse" color-interpolation-filters="sRGB">
<feFlood flood-opacity="0" result="BackgroundImageFix"/>
<feColorMatrix in="SourceAlpha" type="matrix" values="0 0 0 0 0 0 0 0 0 0 0 0 0 0 0 0 0 0 127 0" result="hardAlpha"/>
<feOffset/>
<feGaussianBlur stdDeviation="3.79653"/>
<feComposite in2="hardAlpha" operator="out"/>
<feColorMatrix type="matrix" values="0 0 0 0 0.203922 0 0 0 0 0.737255 0 0 0 0 0.407843 0 0 0 0.09 0"/>
<feBlend mode="normal" in2="BackgroundImageFix" result="effect1_dropShadow_70_40"/>
<feColorMatrix in="SourceAlpha" type="matrix" values="0 0 0 0 0 0 0 0 0 0 0 0 0 0 0 0 0 0 127 0" result="hardAlpha"/>
<feOffset/>
<feGaussianBlur stdDeviation="3.79653"/>
<feComposite in2="hardAlpha" operator="out"/>
<feColorMatrix type="matrix" values="0 0 0 0 0.203922 0 0 0 0 0.737255 0 0 0 0 0.407843 0 0 0 0.09 0"/>
<feBlend mode="normal" in2="effect1_dropShadow_70_40" result="effect2_dropShadow_70_40"/>
<feColorMatrix in="SourceAlpha" type="matrix" values="0 0 0 0 0 0 0 0 0 0 0 0 0 0 0 0 0 0 127 0" result="hardAlpha"/>
<feOffset/>
<feGaussianBlur stdDeviation="3.79653"/>
<feComposite in2="hardAlpha" operator="out"/>
<feColorMatrix type="matrix" values="0 0 0 0 0.203922 0 0 0 0 0.737255 0 0 0 0 0.407843 0 0 0 0.09 0"/>
<feBlend mode="normal" in2="effect2_dropShadow_70_40" result="effect3_dropShadow_70_40"/>
<feColorMatrix in="SourceAlpha" type="matrix" values="0 0 0 0 0 0 0 0 0 0 0 0 0 0 0 0 0 0 127 0" result="hardAlpha"/>
<feOffset/>
<feGaussianBlur stdDeviation="3.79653"/>
<feComposite in2="hardAlpha" operator="out"/>
<feColorMatrix type="matrix" values="0 0 0 0 0.203922 0 0 0 0 0.737255 0 0 0 0 0.407843 0 0 0 0.09 0"/>
<feBlend mode="normal" in2="effect3_dropShadow_70_40" result="effect4_dropShadow_70_40"/>
<feColorMatrix in="SourceAlpha" type="matrix" values="0 0 0 0 0 0 0 0 0 0 0 0 0 0 0 0 0 0 127 0" result="hardAlpha"/>
<feOffset/>
<feGaussianBlur stdDeviation="3.79653"/>
<feComposite in2="hardAlpha" operator="out"/>
<feColorMatrix type="matrix" values="0 0 0 0 0.203922 0 0 0 0 0.737255 0 0 0 0 0.407843 0 0 0 0.09 0"/>
<feBlend mode="normal" in2="effect4_dropShadow_70_40" result="effect5_dropShadow_70_40"/>
<feColorMatrix in="SourceAlpha" type="matrix" values="0 0 0 0 0 0 0 0 0 0 0 0 0 0 0 0 0 0 127 0" result="hardAlpha"/>
<feOffset/>
<feGaussianBlur stdDeviation="3.79653"/>
<feComposite in2="hardAlpha" operator="out"/>
<feColorMatrix type="matrix" values="0 0 0 0 0.203922 0 0 0 0 0.737255 0 0 0 0 0.407843 0 0 0 0.09 0"/>
<feBlend mode="normal" in2="effect5_dropShadow_70_40" result="effect6_dropShadow_70_40"/>
<feBlend mode="normal" in="SourceGraphic" in2="effect6_dropShadow_70_40" result="shape"/>
</filter>
<filter id="filter2_f_70_40" x="240.265" y="64.7993" width="8.93296" height="8.93296" filterUnits="userSpaceOnUse" color-interpolation-filters="sRGB">
<feFlood flood-opacity="0" result="BackgroundImageFix"/>
<feBlend mode="normal" in="SourceGraphic" in2="BackgroundImageFix" result="shape"/>
<feGaussianBlur stdDeviation="0.44665" result="effect1_foregroundBlur_70_40"/>
</filter>
<filter id="filter3_dd_70_40" x="155.4" y="-2.47955e-05" width="180.2" height="90.2" filterUnits="userSpaceOnUse" color-interpolation-filters="sRGB">
<feFlood flood-opacity="0" result="BackgroundImageFix"/>
<feColorMatrix in="SourceAlpha" type="matrix" values="0 0 0 0 0 0 0 0 0 0 0 0 0 0 0 0 0 0 127 0" result="hardAlpha"/>
<feOffset dy="15"/>
<feGaussianBlur stdDeviation="14.3"/>
<feComposite in2="hardAlpha" operator="out"/>
<feColorMatrix type="matrix" values="0 0 0 0 0.0853032 0 0 0 0 0.146154 0 0 0 0 0.0893599 0 0 0 0.12 0"/>
<feBlend mode="normal" in2="BackgroundImageFix" result="effect1_dropShadow_70_40"/>
<feColorMatrix in="SourceAlpha" type="matrix" values="0 0 0 0 0 0 0 0 0 0 0 0 0 0 0 0 0 0 127 0" result="hardAlpha"/>
<feMorphology radius="1" operator="dilate" in="SourceAlpha" result="effect2_dropShadow_70_40"/>
<feOffset/>
<feComposite in2="hardAlpha" operator="out"/>
<feColorMatrix type="matrix" values="0 0 0 0 1 0 0 0 0 1 0 0 0 0 1 0 0 0 1 0"/>
<feBlend mode="normal" in2="effect1_dropShadow_70_40" result="effect2_dropShadow_70_40"/>
<feBlend mode="normal" in="SourceGraphic" in2="effect2_dropShadow_70_40" result="shape"/>
</filter>
<linearGradient id="paint0_linear_70_40" x1="183.996" y1="245.431" x2="183.996" y2="70.27" gradientUnits="userSpaceOnUse">
<stop stop-color="#34BC68" stop-opacity="0"/>
<stop offset="1" stop-color="#34BC68" stop-opacity="0.9"/>
</linearGradient>
<linearGradient id="paint1_linear_70_40" x1="245.432" y1="47.8282" x2="245.432" y2="234.528" gradientUnits="userSpaceOnUse">
<stop stop-color="#34BC68"/>
<stop offset="1" stop-color="#34BC68" stop-opacity="0"/>
</linearGradient>
<linearGradient id="paint2_linear_70_40" x1="361.5" y1="178.6" x2="22.5" y2="178.6" gradientUnits="userSpaceOnUse">
<stop stop-color="#F8FAFC"/>
<stop offset="0.0981028" stop-color="#F8FAFC" stop-opacity="0"/>
<stop offset="0.9" stop-color="#F8FAFC" stop-opacity="0"/>
<stop offset="1" stop-color="#F8FAFC"/>
</linearGradient>
<clipPath id="clip0_70_40">
<rect width="20" height="20" fill="white" transform="translate(192 19.6)"/>
</clipPath>
</defs>
</svg>
