<svg width="56" height="56" viewBox="0 0 56 56" fill="none" xmlns="http://www.w3.org/2000/svg">
<mask id="mask0_1_346" style="mask-type:luminance" maskUnits="userSpaceOnUse" x="0" y="0" width="56" height="56">
<path d="M0 0H56V56H0V0Z" fill="white"/>
</mask>
<g mask="url(#mask0_1_346)">
<path d="M0 24.64C0 16.0153 0 11.7026 1.6786 8.4084C3.15503 5.51083 5.51083 3.15503 8.4084 1.6786C11.7026 0 16.016 0 24.64 0H31.36C39.9847 0 44.2974 0 47.5916 1.6786C50.4892 3.15503 52.845 5.51083 54.3214 8.4084C56 11.7026 56 16.016 56 24.64V31.36C56 39.9847 56 44.2974 54.3214 47.5916C52.845 50.4892 50.4892 52.845 47.5916 54.3214C44.2974 56 39.984 56 31.36 56H24.64C16.0153 56 11.7026 56 8.4084 54.3214C5.51083 52.845 3.15503 50.4892 1.6786 47.5916C0 44.2974 0 39.984 0 31.36V24.64Z" fill="#34BC68"/>
<g clip-path="url(#clip0_1_346)">
<path d="M31.1408 30.8221L28.847 33.1146L31.1408 35.4071C31.2337 35.5 31.3074 35.6103 31.3577 35.7317C31.408 35.8531 31.4339 35.9832 31.4339 36.1146C31.4339 36.246 31.408 36.3761 31.3577 36.4975C31.3074 36.6188 31.2337 36.7291 31.1408 36.8221C31.0479 36.915 30.9376 36.9887 30.8162 37.0389C30.6948 37.0892 30.5647 37.1151 30.4333 37.1151C30.3019 37.1151 30.1718 37.0892 30.0504 37.0389C29.929 36.9887 29.8187 36.915 29.7258 36.8221L28.9333 36.0283L26.0195 38.9433C25.2684 39.6918 24.2512 40.1121 23.1908 40.1121C22.1304 40.1121 21.1132 39.6918 20.362 38.9433L19.6908 38.2708L16.1408 41.8221C16.0479 41.915 15.9376 41.9887 15.8162 42.0389C15.6948 42.0892 15.5647 42.1151 15.4333 42.1151C15.3019 42.1151 15.1718 42.0892 15.0504 42.0389C14.929 41.9887 14.8187 41.915 14.7258 41.8221C14.6329 41.7291 14.5592 41.6188 14.5089 41.4975C14.4586 41.3761 14.4327 41.246 14.4327 41.1146C14.4327 40.9832 14.4586 40.8531 14.5089 40.7317C14.5592 40.6103 14.6329 40.5 14.7258 40.4071L18.277 36.8571L17.6045 36.1858C17.233 35.8144 16.9383 35.3734 16.7372 34.888C16.5361 34.4026 16.4326 33.8824 16.4326 33.3571C16.4326 32.8317 16.5361 32.3115 16.7372 31.8261C16.9383 31.3407 17.233 30.8998 17.6045 30.5283L20.5195 27.6146L19.7258 26.8221C19.5382 26.6344 19.4327 26.3799 19.4327 26.1146C19.4327 25.8492 19.5382 25.5947 19.7258 25.4071C19.9134 25.2194 20.1679 25.114 20.4333 25.114C20.6987 25.114 20.9532 25.2194 21.1408 25.4071L23.4333 27.7008L25.7258 25.4071C25.9134 25.2194 26.1679 25.114 26.4333 25.114C26.6987 25.114 26.9532 25.2194 27.1408 25.4071C27.3284 25.5947 27.4339 25.8492 27.4339 26.1146C27.4339 26.3799 27.3284 26.6344 27.1408 26.8221L24.847 29.1146L27.4333 31.7008L29.7258 29.4071C29.9134 29.2194 30.1679 29.114 30.4333 29.114C30.6987 29.114 30.9532 29.2194 31.1408 29.4071C31.3284 29.5947 31.4339 29.8492 31.4339 30.1146C31.4339 30.3799 31.3284 30.6344 31.1408 30.8221ZM42.1408 14.4071C42.0479 14.3141 41.9376 14.2403 41.8162 14.19C41.6948 14.1397 41.5647 14.1138 41.4333 14.1138C41.3019 14.1138 41.1718 14.1397 41.0504 14.19C40.929 14.2403 40.8187 14.3141 40.7258 14.4071L37.1758 17.9583L36.5045 17.2858C35.7536 16.537 34.7363 16.1165 33.6758 16.1165C32.6153 16.1165 31.598 16.537 30.847 17.2858L27.9333 20.2008L27.1408 19.4071C26.9532 19.2194 26.6987 19.114 26.4333 19.114C26.1679 19.114 25.9134 19.2194 25.7258 19.4071C25.5382 19.5947 25.4327 19.8492 25.4327 20.1146C25.4327 20.3799 25.5382 20.6344 25.7258 20.8221L35.7258 30.8221C35.8187 30.915 35.929 30.9887 36.0504 31.0389C36.1718 31.0892 36.3019 31.1151 36.4333 31.1151C36.5647 31.1151 36.6948 31.0892 36.8162 31.0389C36.9376 30.9887 37.0479 30.915 37.1408 30.8221C37.2337 30.7291 37.3074 30.6188 37.3577 30.4975C37.408 30.3761 37.4339 30.246 37.4339 30.1146C37.4339 29.9832 37.408 29.8531 37.3577 29.7317C37.3074 29.6103 37.2337 29.5 37.1408 29.4071L36.347 28.6146L39.262 25.7008C39.6336 25.3294 39.9283 24.8884 40.1294 24.403C40.3305 23.9176 40.4339 23.3974 40.4339 22.8721C40.4339 22.3467 40.3305 21.8265 40.1294 21.3411C39.9283 20.8557 39.6336 20.4148 39.262 20.0433L38.5895 19.3721L42.1408 15.8221C42.2338 15.7292 42.3075 15.6189 42.3579 15.4975C42.4082 15.3761 42.4341 15.246 42.4341 15.1146C42.4341 14.9831 42.4082 14.853 42.3579 14.7316C42.3075 14.6102 42.2338 14.4999 42.1408 14.4071Z" fill="white"/>
</g>
</g>
<defs>
<clipPath id="clip0_1_346">
<rect width="28" height="28" fill="white" transform="translate(14 14)"/>
</clipPath>
</defs>
</svg>
