<svg width="56" height="56" viewBox="0 0 56 56" fill="none" xmlns="http://www.w3.org/2000/svg">
<mask id="mask0_2_433" style="mask-type:luminance" maskUnits="userSpaceOnUse" x="0" y="0" width="56" height="56">
<path d="M0 0H56V56H0V0Z" fill="white"/>
</mask>
<g mask="url(#mask0_2_433)">
<path d="M0 24.64C0 16.0153 0 11.7026 1.6786 8.4084C3.15503 5.51083 5.51083 3.15503 8.4084 1.6786C11.7026 0 16.016 0 24.64 0H31.36C39.9847 0 44.2974 0 47.5916 1.6786C50.4892 3.15503 52.845 5.51083 54.3214 8.4084C56 11.7026 56 16.016 56 24.64V31.36C56 39.9847 56 44.2974 54.3214 47.5916C52.845 50.4892 50.4892 52.845 47.5916 54.3214C44.2974 56 39.984 56 31.36 56H24.64C16.0153 56 11.7026 56 8.4084 54.3214C5.51083 52.845 3.15503 50.4892 1.6786 47.5916C0 44.2974 0 39.984 0 31.36V24.64Z" fill="#34BC68"/>
<path d="M34 15.875C34 17.735 32.485 19.25 30.625 19.25H25.375C24.445 19.25 23.605 18.875 22.99 18.26C22.375 17.645 22 16.805 22 15.875C22 14.015 23.515 12.5 25.375 12.5H30.625C31.555 12.5 32.395 12.875 33.01 13.49C33.625 14.105 34 14.945 34 15.875Z" fill="white"/>
<path d="M38.245 17.0451C37.9 16.7601 37.51 16.5351 37.09 16.3701C36.655 16.2051 36.22 16.5501 36.13 17.0001C35.62 19.5651 33.355 21.5001 30.625 21.5001H25.375C23.875 21.5001 22.465 20.9151 21.4 19.8501C20.62 19.0701 20.08 18.0801 19.87 17.0151C19.78 16.5651 19.33 16.2051 18.895 16.3851C17.155 17.0901 16 18.6801 16 21.8751V36.5001C16 41.0001 18.685 42.5001 22 42.5001H34C37.315 42.5001 40 41.0001 40 36.5001V21.8751C40 19.4301 39.325 17.9301 38.245 17.0451ZM22 27.8751H28C28.615 27.8751 29.125 28.3851 29.125 29.0001C29.125 29.6151 28.615 30.1251 28 30.1251H22C21.385 30.1251 20.875 29.6151 20.875 29.0001C20.875 28.3851 21.385 27.8751 22 27.8751ZM34 36.1251H22C21.385 36.1251 20.875 35.6151 20.875 35.0001C20.875 34.3851 21.385 33.8751 22 33.8751H34C34.615 33.8751 35.125 34.3851 35.125 35.0001C35.125 35.6151 34.615 36.1251 34 36.1251Z" fill="white"/>
</g>
</svg>
