<svg width="56" height="56" viewBox="0 0 56 56" fill="none" xmlns="http://www.w3.org/2000/svg">
<mask id="mask0_1_499" style="mask-type:luminance" maskUnits="userSpaceOnUse" x="0" y="0" width="56" height="56">
<path d="M0 0H56V56H0V0Z" fill="white"/>
</mask>
<g mask="url(#mask0_1_499)">
<path d="M0 24.64C0 16.0153 0 11.7026 1.6786 8.4084C3.15503 5.51083 5.51083 3.15503 8.4084 1.6786C11.7026 0 16.016 0 24.64 0H31.36C39.9847 0 44.2974 0 47.5916 1.6786C50.4892 3.15503 52.845 5.51083 54.3214 8.4084C56 11.7026 56 16.016 56 24.64V31.36C56 39.9847 56 44.2974 54.3214 47.5916C52.845 50.4892 50.4892 52.845 47.5916 54.3214C44.2974 56 39.984 56 31.36 56H24.64C16.0153 56 11.7026 56 8.4084 54.3214C5.51083 52.845 3.15503 50.4892 1.6786 47.5916C0 44.2974 0 39.984 0 31.36V24.64Z" fill="#34BC68"/>
<path d="M42.505 20.4251C41.545 17.1701 38.83 14.4551 35.575 13.4951C33.1 12.7751 31.39 12.8351 30.205 13.7201C28.78 14.7851 28.615 16.7051 28.615 18.0701V21.8051C28.615 25.4951 30.295 27.3701 33.595 27.3701H37.9C39.25 27.3701 41.185 27.2051 42.25 25.7801C43.165 24.6101 43.24 22.9001 42.505 20.4251Z" fill="white"/>
<path d="M38.365 30.0402C37.975 29.5902 37.405 29.3352 36.82 29.3352H31.45C28.81 29.3352 26.665 27.1902 26.665 24.5502V19.1802C26.665 18.5952 26.41 18.0252 25.96 17.6352C25.525 17.2452 24.925 17.0652 24.355 17.1402C20.83 17.5902 17.59 19.5252 15.475 22.4352C13.345 25.3602 12.565 28.9302 13.24 32.5002C14.215 37.6602 18.34 41.7852 23.515 42.7602C24.34 42.9252 25.165 43.0002 25.99 43.0002C28.705 43.0002 31.33 42.1602 33.565 40.5252C36.475 38.4102 38.41 35.1702 38.86 31.6452C38.935 31.0602 38.755 30.4752 38.365 30.0402Z" fill="white"/>
</g>
</svg>
