<svg width="56" height="56" viewBox="0 0 56 56" fill="none" xmlns="http://www.w3.org/2000/svg">
<g opacity="0.32">
<path fill-rule="evenodd" clip-rule="evenodd" d="M36 14V24H42V14C42 6.268 35.732 0 28 0C20.268 0 14 6.268 14 14V24H20V14C20 11.8783 20.8429 9.84344 22.3431 8.34315C23.8434 6.84285 25.8783 6 28 6C30.1217 6 32.1566 6.84285 33.6569 8.34315C35.1571 9.84344 36 11.8783 36 14Z" fill="#34BC68"/>
<path d="M28 30C27.2044 30 26.4413 30.3161 25.8787 30.8787C25.3161 31.4413 25 32.2044 25 33V37C25 37.7956 25.3161 38.5587 25.8787 39.1213C26.4413 39.6839 27.2044 40 28 40C28.7956 40 29.5587 39.6839 30.1213 39.1213C30.6839 38.5587 31 37.7956 31 37V33C31 32.2044 30.6839 31.4413 30.1213 30.8787C29.5587 30.3161 28.7956 30 28 30Z" fill="#34BC68"/>
</g>
<path fill-rule="evenodd" clip-rule="evenodd" d="M6 34.8C6 30.32 6 28.08 6.872 26.368C7.63898 24.8628 8.86277 23.639 10.368 22.872C12.08 22 14.32 22 18.8 22H37.2C41.68 22 43.92 22 45.632 22.872C47.1372 23.639 48.361 24.8628 49.128 26.368C50 28.08 50 30.32 50 34.8V39.2C50 43.68 50 45.92 49.128 47.632C48.361 49.1372 47.1372 50.361 45.632 51.128C43.92 52 41.68 52 37.2 52H18.8C14.32 52 12.08 52 10.368 51.128C8.86277 50.361 7.63898 49.1372 6.872 47.632C6 45.92 6 43.68 6 39.2V34.8ZM28 30C27.2044 30 26.4413 30.3161 25.8787 30.8787C25.3161 31.4413 25 32.2044 25 33V37C25 37.7956 25.3161 38.5587 25.8787 39.1213C26.4413 39.6839 27.2044 40 28 40C28.7956 40 29.5587 39.6839 30.1213 39.1213C30.6839 38.5587 31 37.7956 31 37V33C31 32.2044 30.6839 31.4413 30.1213 30.8787C29.5587 30.3161 28.7956 30 28 30Z" fill="#34BC68"/>
</svg>
