<svg width="65" height="64" viewBox="0 0 65 64" fill="none" xmlns="http://www.w3.org/2000/svg">
<g clip-path="url(#clip0_2_731)">
<circle cx="32.0149" cy="32.0009" r="32.4853" fill="#34BC68"/>
<path fill-rule="evenodd" clip-rule="evenodd" d="M47.2443 -1.15292C48.8301 0.432865 48.8301 3.00393 47.2443 4.58972L16.6138 35.2203C15.028 36.806 12.4569 36.806 10.8711 35.2203L-0.365493 23.9836C-1.95128 22.3978 -1.95128 19.8268 -0.365493 18.241L30.265 -12.3895C31.8508 -13.9753 34.4219 -13.9753 36.0077 -12.3895L47.2443 -1.15292Z" fill="white" fill-opacity="0.5"/>
<path fill-rule="evenodd" clip-rule="evenodd" d="M62.3292 42.0087C63.915 43.5945 63.915 46.1656 62.3292 47.7514L35.6619 74.4187C34.0761 76.0045 31.505 76.0045 29.9192 74.4187L16.197 60.6965C14.6112 59.1107 14.6112 56.5397 16.197 54.9539L42.8644 28.2865C44.4501 26.7007 47.0212 26.7007 48.607 28.2865L62.3292 42.0087Z" fill="black" fill-opacity="0.3"/>
</g>
<defs>
<clipPath id="clip0_2_731">
<rect x="0.5" width="64" height="64" rx="32" fill="white"/>
</clipPath>
</defs>
</svg>
