<svg width="56" height="56" viewBox="0 0 56 56" fill="none" xmlns="http://www.w3.org/2000/svg">
<mask id="mask0_1_391" style="mask-type:luminance" maskUnits="userSpaceOnUse" x="0" y="0" width="56" height="56">
<path d="M0 0H56V56H0V0Z" fill="white"/>
</mask>
<g mask="url(#mask0_1_391)">
<path d="M0 24.64C0 16.0153 0 11.7026 1.6786 8.4084C3.15503 5.51083 5.51083 3.15503 8.4084 1.6786C11.7026 0 16.016 0 24.64 0H31.36C39.9847 0 44.2974 0 47.5916 1.6786C50.4892 3.15503 52.845 5.51083 54.3214 8.4084C56 11.7026 56 16.016 56 24.64V31.36C56 39.9847 56 44.2974 54.3214 47.5916C52.845 50.4892 50.4892 52.845 47.5916 54.3214C44.2974 56 39.984 56 31.36 56H24.64C16.0153 56 11.7026 56 8.4084 54.3214C5.51083 52.845 3.15503 50.4892 1.6786 47.5916C0 44.2974 0 39.984 0 31.36V24.64Z" fill="#34BC68"/>
<g clip-path="url(#clip0_1_391)">
<path d="M35.6429 17.3424V15.0911C35.6429 14.5228 35.4146 13.9777 35.0083 13.5759C34.602 13.174 34.0509 12.9482 33.4762 12.9482H22.6429C22.0682 12.9482 21.5171 13.174 21.1108 13.5759C20.7045 13.9777 20.4762 14.5228 20.4762 15.0911V17.3424C19.2536 17.5906 18.1548 18.2482 17.3654 19.2043C16.576 20.1605 16.1442 21.3567 16.1429 22.5911V37.5911C16.1429 39.0119 16.7136 40.3745 17.7294 41.3792C18.7452 42.3838 20.123 42.9482 21.5595 42.9482H34.5595C35.9961 42.9482 37.3739 42.3838 38.3897 41.3792C39.4055 40.3745 39.9762 39.0119 39.9762 37.5911V22.5911C39.9749 21.3567 39.5431 20.1605 38.7537 19.2043C37.9643 18.2482 36.8655 17.5906 35.6429 17.3424ZM26.9762 15.0911H29.1429V17.234H26.9762V15.0911ZM22.6429 15.0911H24.8095V17.234H22.6429V15.0911ZM29.1429 35.4482V36.5197C29.1429 36.8038 29.0287 37.0764 28.8256 37.2773C28.6224 37.4782 28.3469 37.5911 28.0595 37.5911C27.7722 37.5911 27.4967 37.4782 27.2935 37.2773C27.0904 37.0764 26.9762 36.8038 26.9762 36.5197V35.4482H25.8929C25.6056 35.4482 25.33 35.3354 25.1269 35.1344C24.9237 34.9335 24.8095 34.661 24.8095 34.3768C24.8095 34.0927 24.9237 33.8201 25.1269 33.6192C25.33 33.4183 25.6056 33.3054 25.8929 33.3054H29.1429C29.4302 33.3054 29.7058 33.1925 29.9089 32.9916C30.1121 32.7906 30.2262 32.5181 30.2262 32.234C30.2262 31.9498 30.1121 31.6773 29.9089 31.4763C29.7058 31.2754 29.4302 31.1625 29.1429 31.1625H26.9762C26.1143 31.1625 25.2876 30.8239 24.6781 30.2211C24.0686 29.6183 23.7262 28.8007 23.7262 27.9482C23.7262 27.0958 24.0686 26.2782 24.6781 25.6754C25.2876 25.0726 26.1143 24.734 26.9762 24.734V23.6625C26.9762 23.3784 27.0904 23.1058 27.2935 22.9049C27.4967 22.704 27.7722 22.5911 28.0595 22.5911C28.3469 22.5911 28.6224 22.704 28.8256 22.9049C29.0287 23.1058 29.1429 23.3784 29.1429 23.6625V24.734H30.2262C30.5135 24.734 30.7891 24.8468 30.9922 25.0478C31.1954 25.2487 31.3095 25.5212 31.3095 25.8054C31.3095 26.0895 31.1954 26.3621 30.9922 26.563C30.7891 26.7639 30.5135 26.8768 30.2262 26.8768H26.9762C26.6889 26.8768 26.4133 26.9897 26.2102 27.1906C26.007 27.3916 25.8929 27.6641 25.8929 27.9482C25.8929 28.2324 26.007 28.5049 26.2102 28.7059C26.4133 28.9068 26.6889 29.0197 26.9762 29.0197H29.1429C30.0048 29.0197 30.8315 29.3583 31.441 29.9611C32.0505 30.5639 32.3929 31.3815 32.3929 32.234C32.3929 33.0864 32.0505 33.904 31.441 34.5068C30.8315 35.1096 30.0048 35.4482 29.1429 35.4482ZM33.4762 17.234H31.3095V15.0911H33.4762V17.234Z" fill="white"/>
</g>
</g>
<defs>
<clipPath id="clip0_1_391">
<rect width="25.7143" height="30" fill="white" transform="translate(15.1429 13)"/>
</clipPath>
</defs>
</svg>
