<svg width="56" height="56" viewBox="0 0 56 56" fill="none" xmlns="http://www.w3.org/2000/svg">
<mask id="mask0_2_453" style="mask-type:luminance" maskUnits="userSpaceOnUse" x="0" y="0" width="56" height="56">
<path d="M0 0H56V56H0V0Z" fill="white"/>
</mask>
<g mask="url(#mask0_2_453)">
<path d="M0 24.64C0 16.0153 0 11.7026 1.6786 8.4084C3.15503 5.51083 5.51083 3.15503 8.4084 1.6786C11.7026 0 16.016 0 24.64 0H31.36C39.9847 0 44.2974 0 47.5916 1.6786C50.4892 3.15503 52.845 5.51083 54.3214 8.4084C56 11.7026 56 16.016 56 24.64V31.36C56 39.9847 56 44.2974 54.3214 47.5916C52.845 50.4892 50.4892 52.845 47.5916 54.3214C44.2974 56 39.984 56 31.36 56H24.64C16.0153 56 11.7026 56 8.4084 54.3214C5.51083 52.845 3.15503 50.4892 1.6786 47.5916C0 44.2974 0 39.984 0 31.36V24.64Z" fill="#34BC68"/>
<path fill-rule="evenodd" clip-rule="evenodd" d="M32.1502 14.7343C30.0343 13.5718 28.9769 12.9902 27.824 12.9902C26.6712 12.9902 25.6132 13.5718 23.4979 14.7356L17.6578 17.948C16.3619 18.6597 15.7143 19.0163 15.3571 19.6203C15 20.2243 15 20.9629 15 22.4416V30.3091C15 37.4579 21.4082 41.2852 26.6481 42.8209C27.4158 43.0467 28.2323 43.0467 29 42.8209C34.2406 41.2852 40.6481 37.4585 40.6481 30.3091V22.4416C40.6481 20.9629 40.6481 20.2236 40.2909 19.6203C39.9338 19.0156 39.2862 18.6597 37.9903 17.9467L32.1502 14.7343ZM33.6725 27.1807C33.8562 27.0032 34.0027 26.791 34.1035 26.5563C34.2044 26.3216 34.2574 26.0692 34.2596 25.8138C34.2619 25.5584 34.2132 25.3051 34.1165 25.0687C34.0197 24.8322 33.8769 24.6175 33.6963 24.4369C33.5157 24.2562 33.3009 24.1134 33.0645 24.0167C32.8281 23.92 32.5748 23.8713 32.3194 23.8735C32.064 23.8757 31.8116 23.9288 31.5769 24.0296C31.3422 24.1304 31.1299 24.277 30.9525 24.4607L25.9004 29.5121L24.0544 27.6667C23.877 27.483 23.6647 27.3364 23.43 27.2356C23.1953 27.1348 22.9429 27.0818 22.6875 27.0795C22.4321 27.0773 22.1788 27.126 21.9424 27.2227C21.706 27.3194 21.4912 27.4623 21.3106 27.6429C21.13 27.8235 20.9871 28.0383 20.8904 28.2747C20.7937 28.5111 20.745 28.7644 20.7473 29.0198C20.7495 29.2752 20.8025 29.5276 20.9034 29.7623C21.0042 29.997 21.1507 30.2092 21.3344 30.3867L24.5404 33.5927C24.9012 33.9533 25.3904 34.1559 25.9004 34.1559C26.4105 34.1559 26.8997 33.9533 27.2604 33.5927L33.6725 27.1807Z" fill="white"/>
</g>
</svg>
