<svg width="56" height="56" viewBox="0 0 56 56" fill="none" xmlns="http://www.w3.org/2000/svg">
<path opacity="0.4" d="M4.66669 30.0533V25.9466C4.66669 23.5199 6.65002 21.5133 9.10002 21.5133C13.3234 21.5133 15.05 18.5266 12.9267 14.8633C11.7134 12.7633 12.4367 10.0333 14.56 8.81993L18.5967 6.50993C20.44 5.41327 22.82 6.0666 23.9167 7.90993L24.1734 8.35327C26.2734 12.0166 29.7267 12.0166 31.85 8.35327L32.1067 7.90993C33.2034 6.0666 35.5834 5.41327 37.4267 6.50993L41.4634 8.81993C43.5867 10.0333 44.31 12.7633 43.0967 14.8633C40.9734 18.5266 42.7 21.5133 46.9234 21.5133C49.35 21.5133 51.3567 23.4966 51.3567 25.9466V30.0533C51.3567 32.4799 49.3734 34.4866 46.9234 34.4866C42.7 34.4866 40.9734 37.4733 43.0967 41.1366C44.31 43.2599 43.5867 45.9666 41.4634 47.1799L37.4267 49.4899C35.5834 50.5866 33.2034 49.9333 32.1067 48.0899L31.85 47.6466C29.75 43.9833 26.2967 43.9833 24.1734 47.6466L23.9167 48.0899C22.82 49.9333 20.44 50.5866 18.5967 49.4899L14.56 47.1799C12.4367 45.9666 11.7134 43.2366 12.9267 41.1366C15.05 37.4733 13.3234 34.4866 9.10002 34.4866C6.65002 34.4866 4.66669 32.4799 4.66669 30.0533Z" fill="#34BC68"/>
<path d="M28 35.5834C32.1882 35.5834 35.5834 32.1882 35.5834 28.0001C35.5834 23.8119 32.1882 20.4167 28 20.4167C23.8119 20.4167 20.4167 23.8119 20.4167 28.0001C20.4167 32.1882 23.8119 35.5834 28 35.5834Z" fill="#34BC68"/>
</svg>
