<svg width="56" height="56" viewBox="0 0 56 56" fill="none" xmlns="http://www.w3.org/2000/svg">
<path fill-rule="evenodd" clip-rule="evenodd" d="M34.747 6.70999C31.447 4.89699 29.798 3.98999 28 3.98999C26.202 3.98999 24.552 4.89699 21.253 6.71199L12.145 11.722C10.124 12.832 9.114 13.388 8.557 14.33C8 15.272 8 16.424 8 18.73V31C8 42.149 17.994 48.118 26.166 50.513C27.3633 50.8651 28.6367 50.8651 29.834 50.513C38.007 48.118 48 42.15 48 31V18.73C48 16.424 48 15.271 47.443 14.33C46.886 13.387 45.876 12.832 43.855 11.72L34.747 6.70999ZM37.121 26.121C37.4075 25.8442 37.6361 25.5132 37.7933 25.1472C37.9505 24.7812 38.0333 24.3875 38.0368 23.9892C38.0402 23.5909 37.9643 23.1958 37.8135 22.8271C37.6626 22.4584 37.4399 22.1235 37.1582 21.8418C36.8765 21.5601 36.5416 21.3374 36.1729 21.1865C35.8042 21.0357 35.4091 20.9598 35.0108 20.9632C34.6125 20.9667 34.2188 21.0495 33.8528 21.2067C33.4868 21.3639 33.1557 21.5925 32.879 21.879L25 29.757L22.121 26.879C21.8443 26.5925 21.5132 26.3639 21.1472 26.2067C20.7812 26.0495 20.3875 25.9667 19.9892 25.9632C19.5909 25.9598 19.1958 26.0357 18.8271 26.1865C18.4585 26.3374 18.1235 26.5601 17.8418 26.8418C17.5601 27.1235 17.3374 27.4584 17.1865 27.8271C17.0357 28.1958 16.9598 28.5909 16.9632 28.9892C16.9667 29.3875 17.0495 29.7812 17.2067 30.1472C17.3639 30.5132 17.5925 30.8442 17.879 31.121L22.879 36.121C23.4416 36.6834 24.2045 36.9993 25 36.9993C25.7955 36.9993 26.5584 36.6834 27.121 36.121L37.121 26.121Z" fill="#34BC68"/>
<path opacity="0.32" fill-rule="evenodd" clip-rule="evenodd" d="M37.121 21.8791C37.6834 22.4417 37.9994 23.2046 37.9994 24.0001C37.9994 24.7956 37.6834 25.5585 37.121 26.1211L27.121 36.1211C26.5584 36.6835 25.7955 36.9995 25 36.9995C24.2045 36.9995 23.4416 36.6835 22.879 36.1211L17.879 31.1211C17.5925 30.8444 17.3639 30.5133 17.2067 30.1473C17.0495 29.7813 16.9667 29.3876 16.9632 28.9893C16.9598 28.591 17.0357 28.1959 17.1865 27.8272C17.3374 27.4585 17.5601 27.1236 17.8418 26.8419C18.1235 26.5602 18.4584 26.3375 18.8271 26.1866C19.1958 26.0358 19.5909 25.9599 19.9892 25.9633C20.3875 25.9668 20.7812 26.0496 21.1472 26.2068C21.5132 26.364 21.8443 26.5926 22.121 26.8791L25 29.7571L32.879 21.8791C33.4416 21.3167 34.2045 21.0007 35 21.0007C35.7955 21.0007 36.5584 21.3167 37.121 21.8791Z" fill="#34BC68"/>
</svg>
