<svg width="56" height="56" viewBox="0 0 56 56" fill="none" xmlns="http://www.w3.org/2000/svg">
<path d="M36.799 7H19.201C11.557 7 7 11.557 7 19.201V36.778C7 44.443 11.557 49 19.201 49H36.778C44.422 49 48.979 44.443 48.979 36.799V19.201C49 11.557 44.443 7 36.799 7Z" fill="#34BC68"/>
<path opacity="0.7" d="M17.248 42.4902C16.387 42.4902 15.673 41.7762 15.673 40.9152V36.5682C15.673 35.7072 16.387 34.9932 17.248 34.9932C18.109 34.9932 18.823 35.7072 18.823 36.5682V40.9152C18.823 41.7972 18.109 42.4902 17.248 42.4902Z" fill="white"/>
<path opacity="0.7" d="M28 42.49C27.139 42.49 26.425 41.776 26.425 40.915V32.2C26.425 31.339 27.139 30.625 28 30.625C28.861 30.625 29.575 31.339 29.575 32.2V40.915C29.575 41.797 28.861 42.49 28 42.49Z" fill="white"/>
<path opacity="0.7" d="M38.752 42.4903C37.891 42.4903 37.177 41.7763 37.177 40.9153V27.8533C37.177 26.9923 37.891 26.2783 38.752 26.2783C39.613 26.2783 40.327 26.9923 40.327 27.8533V40.9153C40.327 41.7973 39.634 42.4903 38.752 42.4903Z" fill="white"/>
<path opacity="0.7" d="M40.327 15.0223C40.327 14.9173 40.285 14.7913 40.264 14.6863C40.243 14.6023 40.222 14.4973 40.201 14.4133C40.159 14.3293 40.096 14.2663 40.054 14.1823C39.991 14.0983 39.928 13.9933 39.844 13.9303C39.823 13.9093 39.823 13.8883 39.802 13.8883C39.739 13.8463 39.676 13.8253 39.613 13.7833C39.529 13.7203 39.424 13.6573 39.319 13.6153C39.214 13.5733 39.109 13.5733 39.004 13.5523C38.92 13.5313 38.857 13.5103 38.773 13.5103H32.62C31.759 13.5103 31.045 14.2243 31.045 15.0853C31.045 15.9463 31.759 16.6603 32.62 16.6603H35.245C30.247 21.9103 23.947 25.6063 16.87 27.3913C16.03 27.6013 15.505 28.4623 15.715 29.3023C15.883 30.0163 16.534 30.4993 17.248 30.4993C17.374 30.4993 17.5 30.4783 17.626 30.4573C25.123 28.5883 31.822 24.7033 37.177 19.2013V21.2383C37.177 22.0993 37.891 22.8133 38.752 22.8133C39.613 22.8133 40.327 22.0993 40.327 21.2383V15.0853C40.327 15.0643 40.327 15.0433 40.327 15.0223Z" fill="white"/>
</svg>
